<svg width="48" height="48" viewBox="0 0 48 48" fill="none" xmlns="http://www.w3.org/2000/svg">
<g clip-path="url(#clip0_3_109)">
<path d="M38 6H10C7.8 6 6 7.8 6 10V24C6 26.2 7.8 28 10 28H38C40.2 28 42 26.2 42 24V10C42 7.8 40.2 6 38 6ZM10 20H16.26C16.68 21.56 17.6 22.94 18.8 24H10V20ZM38 24H29.2C30.4 22.94 31.32 21.56 31.74 20H38V24ZM38 16H28V18C28 20.14 26.14 22 24 22C21.86 22 20 20.14 20 18V16H10V10H38V16ZM34 30H28V32C28 32.94 27.62 33.8 27.04 34.5C26.3 35.4 25.2 36 24 36C22.8 36 21.7 35.4 20.96 34.5C20.38 33.8 20 32.94 20 32V30H6V38C6 40.2 7.8 42 10 42H38C40.2 42 42 40.2 42 38V30H34ZM10 34H16.26C16.3 34.18 16.38 34.34 16.44 34.5C16.92 35.86 17.74 37.06 18.8 38H10V34ZM38 38H29.2C30.28 37.06 31.1 35.86 31.56 34.5C31.62 34.34 31.7 34.18 31.74 34H38V38Z" fill="white"/>
</g>
<defs>
<clipPath id="clip0_3_109">
<rect width="48" height="48" fill="white"/>
</clipPath>
</defs>
</svg>
