<svg width="318" height="318" viewBox="0 0 318 318" fill="none" xmlns="http://www.w3.org/2000/svg">
<path d="M159 317.5C246.537 317.5 317.5 246.532 317.5 158.988C317.5 72.3771 248.042 1.99039 161.793 0.5L161.793 92.708C197.132 94.1719 225.333 123.286 225.333 158.988C225.333 195.625 195.634 225.326 159 225.326C122.366 225.326 92.6674 195.625 92.6674 158.988C92.6674 123.286 120.868 94.1719 156.207 92.708V0.5C69.9584 1.9904 0.5 72.3771 0.5 158.988C0.5 246.532 71.4629 317.5 159 317.5Z" fill="#3A3A3A"/>
<path d="M159 317.5C246.537 317.5 317.5 246.532 317.5 158.988C317.5 72.3771 248.042 1.99039 161.793 0.5L161.793 92.708C197.132 94.1719 225.333 123.286 225.333 158.988C225.333 195.625 195.634 225.326 159 225.326C122.366 225.326 92.6674 195.625 92.6674 158.988C92.6674 123.286 120.868 94.1719 156.207 92.708V0.5C69.9584 1.9904 0.5 72.3771 0.5 158.988C0.5 246.532 71.4629 317.5 159 317.5Z" fill="url(#paint0_linear_81_709)"/>
<path d="M119.043 199.256C141.193 221.406 177.107 221.405 199.259 199.253C221.174 177.337 221.409 141.952 199.962 119.751L176.63 143.082C185.202 152.395 184.971 166.898 175.937 175.931C166.666 185.202 151.637 185.202 142.367 175.933C133.097 166.663 133.097 151.633 142.368 142.362C151.402 133.329 165.904 133.097 175.217 141.669L198.549 118.337C176.348 96.8903 140.962 97.1252 119.046 119.041C96.8947 141.192 96.8933 177.106 119.043 199.256Z" fill="white"/>
<defs>
<linearGradient id="paint0_linear_81_709" x1="159.698" y1="0.500004" x2="189.148" y2="314.764" gradientUnits="userSpaceOnUse">
<stop stop-color="#80C693"/>
<stop offset="1" stop-color="#B9AAFF"/>
</linearGradient>
</defs>
</svg>
